<svg width="1200" height="720" viewBox="0 0 1200 720" fill="none" xmlns="http://www.w3.org/2000/svg">
  <rect width="1200" height="720" rx="36" fill="#0B1220"/>
  <rect x="44" y="44" width="1112" height="632" rx="28" fill="#111A2B" stroke="#23314A"/>
  <rect x="88" y="112" width="372" height="76" rx="18" fill="#1C2940"/>
  <rect x="88" y="220" width="488" height="22" rx="11" fill="#40506E"/>
  <rect x="88" y="258" width="420" height="22" rx="11" fill="#40506E"/>
  <rect x="88" y="340" width="234" height="222" rx="20" fill="#1A263A"/>
  <rect x="348" y="340" width="234" height="222" rx="20" fill="#1A263A"/>
  <rect x="608" y="112" width="500" height="450" rx="28" fill="#0F1726" stroke="#2D4367"/>
  <rect x="646" y="164" width="420" height="54" rx="12" fill="#18355A"/>
  <rect x="646" y="252" width="420" height="20" rx="10" fill="#51627F"/>
  <rect x="646" y="292" width="350" height="20" rx="10" fill="#51627F"/>
  <rect x="646" y="360" width="420" height="88" rx="16" fill="#122640"/>
  <rect x="646" y="470" width="420" height="52" rx="16" fill="#164E63"/>
  <text x="88" y="95" fill="#DCE8FF" font-family="Arial, sans-serif" font-size="42" font-weight="700">Price Pilot</text>
  <text x="88" y="615" fill="#95A7C4" font-family="Arial, sans-serif" font-size="28">Preview placeholder: cross-platform comparison card</text>
</svg>

